<?xml version="1.0" encoding="utf-8"?>
<!-- Generator: Adobe Illustrator 16.0.0, SVG Export Plug-In . SVG Version: 6.00 Build 0)  -->
<svg version="1.2" baseProfile="tiny" id="Capa_1" xmlns="http://www.w3.org/2000/svg" xmlns:xlink="http://www.w3.org/1999/xlink"
	 x="0px" y="0px" width="283.465px" height="85.04px" viewBox="0 0 283.465 85.04" xml:space="preserve">
<g>
	<text transform="matrix(0.9898 0 0 1 5.3213 57.9546)" font-family="'Verdana'" font-size="31.7019">E</text>
	<text transform="matrix(0.9898 0 0 1 25.1616 57.9546)" font-family="'Verdana'" font-size="31.7019">D</text>
	<text transform="matrix(0.9898 0 0 1 49.0317 57.9546)" font-family="'Verdana'" font-size="31.7019">W</text>
	<text transform="matrix(0.9898 0 0 1 80.0566 57.9546)" font-family="'Verdana'" font-size="31.7019">I</text>
	<text transform="matrix(0.9898 0 0 1 93.2632 57.9546)" font-family="'Verdana'" font-size="31.7019">N</text>
	<text transform="matrix(0.9898 0 0 1 116.7349 57.9546)" font-family="'Verdana'" font-size="31.7019"> </text>
	<text transform="matrix(0.9898 0 0 1 127.7656 57.9546)" font-family="'Verdana'" font-size="31.7019">J</text>
	<text transform="matrix(0.9898 0 0 1 142.0298 57.9546)" font-family="'Verdana'" font-size="31.7019">O</text>
	<text transform="matrix(0.9898 0 0 1 166.7271 57.9546)" font-family="'Verdana'" font-size="31.7019">V</text>
	<text transform="matrix(0.9898 0 0 1 187.2568 57.9546)" font-family="'Verdana'" font-size="31.7019">A</text>
	<text transform="matrix(0.9898 0 0 1 208.7061 57.9546)" font-family="'Verdana'" font-size="31.7019">N</text>
	<text transform="matrix(0.9898 0 0 1 232.1777 57.9546)" font-family="'Verdana'" font-size="31.7019">N</text>
	<text transform="matrix(0.9898 0 0 1 255.6494 57.9546)" font-family="'Verdana'" font-size="31.7019">Y</text>
	<rect x="1.935" y="25.667" fill="none" stroke="#000000" stroke-width="2" stroke-miterlimit="10" width="278" height="42"/>
	<rect x="126.935" y="60.667" fill="#FFFFFF" stroke="#FFFFFF" stroke-width="2" stroke-miterlimit="10" width="146" height="23"/>
	<text transform="matrix(1.0068 0 0 1 128.3579 75.1372)" font-family="'Arial-BoldMT'" font-size="15.0811">A</text>
	<text transform="matrix(1.0068 0 0 1 139.3228 75.1372)" font-family="'Arial-BoldMT'" font-size="15.0811">C</text>
	<text transform="matrix(1.0068 0 0 1 150.2876 75.1372)" font-family="'Arial-BoldMT'" font-size="15.0811">E</text>
	<text transform="matrix(1.0068 0 0 1 160.4146 75.1372)" font-family="'Arial-BoldMT'" font-size="15.0811">V</text>
	<text transform="matrix(1.0068 0 0 1 170.542 75.1372)" font-family="'Arial-BoldMT'" font-size="15.0811">E</text>
	<text transform="matrix(1.0068 0 0 1 180.6689 75.1372)" font-family="'Arial-BoldMT'" font-size="15.0811">D</text>
	<text transform="matrix(1.0068 0 0 1 191.6338 75.1372)" font-family="'Arial-BoldMT'" font-size="15.0811">O</text>
	<text transform="matrix(1.0068 0 0 1 203.4434 75.1372)" font-family="'Arial-BoldMT'" font-size="15.0811"> </text>
	<text transform="matrix(1.0068 0 0 1 207.6621 75.1372)" font-family="'Arial-BoldMT'" font-size="15.0811">C</text>
	<text transform="matrix(1.0068 0 0 1 218.627 75.1372)" font-family="'Arial-BoldMT'" font-size="15.0811">L</text>
	<text transform="matrix(1.0068 0 0 1 227.9014 75.1372)" font-family="'Arial-BoldMT'" font-size="15.0811">A</text>
	<text transform="matrix(1.0068 0 0 1 237.7393 75.1372)" font-family="'Arial-BoldMT'" font-size="15.0811">V</text>
	<text transform="matrix(1.0068 0 0 1 247.8662 75.1372)" font-family="'Arial-BoldMT'" font-size="15.0811">I</text>
	<text transform="matrix(1.0068 0 0 1 252.085 75.1372)" font-family="'Arial-BoldMT'" font-size="15.0811">J</text>
	<text transform="matrix(1.0068 0 0 1 260.5293 75.1372)" font-family="'Arial-BoldMT'" font-size="15.0811">O</text>
</g>
</svg>
