<?xml version="1.0" encoding="utf-8"?>
<!-- Generator: Adobe Illustrator 16.0.0, SVG Export Plug-In . SVG Version: 6.00 Build 0)  -->
<svg version="1.2" baseProfile="tiny" id="Capa_1" xmlns="http://www.w3.org/2000/svg" xmlns:xlink="http://www.w3.org/1999/xlink"
	 x="0px" y="0px" width="185.596px" height="85.04px" viewBox="0 0 185.596 85.04" xml:space="preserve">
<rect x="20.5" y="13.167" fill="#FFFFFF" stroke="#000000" stroke-miterlimit="10" width="143" height="18"/>
<rect x="78" y="27.667" fill="#FFFFFF" width="79" height="12"/>
<text transform="matrix(1.065 0 0 1 25.937 26.9971)" font-family="'Verdana'" font-size="14">E</text>
<text transform="matrix(1.065 0 0 1 35.3652 26.9971)" font-family="'Verdana'" font-size="14">D</text>
<text transform="matrix(1.065 0 0 1 46.708 26.9971)" font-family="'Verdana'" font-size="14">W</text>
<text transform="matrix(1.065 0 0 1 61.4507 26.9971)" font-family="'Verdana'" font-size="14">I</text>
<text transform="matrix(1.065 0 0 1 67.7266 26.9971)" font-family="'Verdana'" font-size="14">N</text>
<text transform="matrix(1.065 0 0 1 78.8799 26.9971)" font-family="'Verdana'" font-size="14"> </text>
<text transform="matrix(1.065 0 0 1 84.1216 26.9971)" font-family="'Verdana'" font-size="14">J</text>
<text transform="matrix(1.065 0 0 1 90.8994 26.9971)" font-family="'Verdana'" font-size="14">O</text>
<text transform="matrix(1.065 0 0 1 102.6353 26.9971)" font-family="'Verdana'" font-size="14">V</text>
<text transform="matrix(1.065 0 0 1 112.3906 26.9971)" font-family="'Verdana'" font-size="14">A</text>
<text transform="matrix(1.065 0 0 1 122.583 26.9971)" font-family="'Verdana'" font-size="14">N</text>
<text transform="matrix(1.065 0 0 1 133.7368 26.9971)" font-family="'Verdana'" font-size="14">N</text>
<text transform="matrix(1.065 0 0 1 144.8906 26.9971)" font-family="'Verdana'" font-size="14">Y</text>
<text transform="matrix(1.0305 0 0 1 80.0732 32.9961)" font-family="'BerlinSansFBDemi-Bold'" font-size="8">ACEVEDO CLAVIJO</text>
<rect x="-387" y="-137.333" fill="#3366CC" width="566" height="76"/>
<text transform="matrix(0.8832 0 0 1 -378.1089 -94.894)" fill="#FFFFFF" font-family="'BerlinSansFB-Reg'" font-size="47.6962">Edwin Jovanny Acevedo Clavijo</text>
<text transform="matrix(0.8467 0 0 1 -351.9277 -73.3799)" font-family="'Verdana-Bold'" font-size="23.1732">Ingeniero Electrónico - Estudiante de Next U.</text>
<rect x="162.5" y="65.167" fill="#FFFFFF" stroke="#000000" stroke-miterlimit="10" width="143" height="18"/>
</svg>
