<?xml version="1.0" encoding="utf-8"?>
<!-- Generator: Adobe Illustrator 16.0.0, SVG Export Plug-In . SVG Version: 6.00 Build 0)  -->
<svg version="1.2" baseProfile="tiny" id="Capa_1" xmlns="http://www.w3.org/2000/svg" xmlns:xlink="http://www.w3.org/1999/xlink"
	 x="0px" y="0px" width="960px" height="560px" viewBox="0 0 960 560" xml:space="preserve">
<rect x="66.5" y="221.5" fill="#29ABE2" stroke="#000000" stroke-width="5" stroke-miterlimit="10" width="792" height="86"/>
<rect x="385" y="291" fill="#FFFFFF" width="437" height="57"/>
<text transform="matrix(1.2357 0 0 1 96.6094 285.9336)" fill="#FFFFFF" font-family="'Verdana'" font-size="66.8302">E</text>
<text transform="matrix(1.2357 0 0 1 148.8262 285.9336)" fill="#FFFFFF" font-family="'Verdana'" font-size="66.8302">D</text>
<text transform="matrix(1.2357 0 0 1 211.6479 285.9336)" fill="#FFFFFF" font-family="'Verdana'" font-size="66.8302">W</text>
<text transform="matrix(1.2357 0 0 1 293.2998 285.9336)" fill="#FFFFFF" font-family="'Verdana'" font-size="66.8302">I</text>
<text transform="matrix(1.2357 0 0 1 328.0571 285.9336)" fill="#FFFFFF" font-family="'Verdana'" font-size="66.8302">N</text>
<text transform="matrix(1.2357 0 0 1 389.8301 285.9336)" fill="#FFFFFF" font-family="'Verdana'" font-size="66.8302"> </text>
<text transform="matrix(1.2357 0 0 1 418.8618 285.9336)" fill="#FFFFFF" font-family="'Verdana'" font-size="66.8302">J</text>
<text transform="matrix(1.2357 0 0 1 456.4014 285.9336)" fill="#FFFFFF" font-family="'Verdana'" font-size="66.8302">O</text>
<text transform="matrix(1.2357 0 0 1 521.4004 285.9336)" fill="#FFFFFF" font-family="'Verdana'" font-size="66.8302">V</text>
<text transform="matrix(1.2357 0 0 1 575.4316 285.9336)" fill="#FFFFFF" font-family="'Verdana'" font-size="66.8302">A</text>
<text transform="matrix(1.2357 0 0 1 631.8828 285.9336)" fill="#FFFFFF" font-family="'Verdana'" font-size="66.8302">N</text>
<text transform="matrix(1.2357 0 0 1 693.6553 285.9336)" fill="#FFFFFF" font-family="'Verdana'" font-size="66.8302">N</text>
<text transform="matrix(1.2357 0 0 1 755.4287 285.9336)" fill="#FFFFFF" font-family="'Verdana'" font-size="66.8302">Y</text>
<text transform="matrix(1.1957 0 0 1 396.4419 314.5684)" font-family="'BerlinSansFBDemi-Bold'" font-size="38.1887">ACEVEDO CLAVIJO</text>
</svg>
